<svg width="85" height="85" viewBox="0 0 85 85" fill="none" xmlns="http://www.w3.org/2000/svg">
<path d="M80.75 16.8797H59.5V9.83482C59.4003 7.13425 58.2259 4.58309 56.2342 2.74061C54.2425 0.898129 51.596 -0.085333 48.875 0.00581489H36.125C33.404 -0.085333 30.7575 0.898129 28.7658 2.74061C26.7741 4.58309 25.5997 7.13425 25.5 9.83482V16.8797H4.25C3.12283 16.8797 2.04183 17.3241 1.2448 18.1152C0.447766 18.9063 0 19.9793 0 21.0981C0 22.2169 0.447766 23.2899 1.2448 24.081C2.04183 24.8721 3.12283 25.3166 4.25 25.3166H8.5V71.7196C8.5 75.076 9.8433 78.295 12.2344 80.6683C14.6255 83.0417 17.8685 84.375 21.25 84.375H63.75C67.1315 84.375 70.3745 83.0417 72.7656 80.6683C75.1567 78.295 76.5 75.076 76.5 71.7196V25.3166H80.75C81.8772 25.3166 82.9582 24.8721 83.7552 24.081C84.5522 23.2899 85 22.2169 85 21.0981C85 19.9793 84.5522 18.9063 83.7552 18.1152C82.9582 17.3241 81.8772 16.8797 80.75 16.8797ZM34 59.0642C34 60.183 33.5522 61.256 32.7552 62.0471C31.9582 62.8383 30.8772 63.2827 29.75 63.2827C28.6228 63.2827 27.5418 62.8383 26.7448 62.0471C25.9478 61.256 25.5 60.183 25.5 59.0642V42.1904C25.5 41.0716 25.9478 39.9986 26.7448 39.2075C27.5418 38.4164 28.6228 37.9719 29.75 37.9719C30.8772 37.9719 31.9582 38.4164 32.7552 39.2075C33.5522 39.9986 34 41.0716 34 42.1904V59.0642ZM34 9.83482C34 9.15987 34.8925 8.44273 36.125 8.44273H48.875C50.1075 8.44273 51 9.15987 51 9.83482V16.8797H34V9.83482ZM59.5 59.0642C59.5 60.183 59.0522 61.256 58.2552 62.0471C57.4582 62.8383 56.3772 63.2827 55.25 63.2827C54.1228 63.2827 53.0418 62.8383 52.2448 62.0471C51.4478 61.256 51 60.183 51 59.0642V42.1904C51 41.0716 51.4478 39.9986 52.2448 39.2075C53.0418 38.4164 54.1228 37.9719 55.25 37.9719C56.3772 37.9719 57.4582 38.4164 58.2552 39.2075C59.0522 39.9986 59.5 41.0716 59.5 42.1904V59.0642Z" fill="#DD9D34"/>
</svg>
